# xmcd
# Copyright (C) 1995-1998 Ti Kan
#
# Track frame offsets:
#       150
#       21720
#       45626
#       68089
#       88843
#       124530
#       147439
#       166941
#       188245
#
# Disc length: 2996 seconds
#
# Revision: 0
# Processed by: cddbd v1.5.2PL0 Copyright (c) Steve Scherf et al.
# Submitted via: CD-Transfer v1.0
#
DISCID=7e0bb209
DTITLE=Mièetiæ Trio, Bruno - 
DYEAR=13
DGENRE=
TTITLE0=Four On Six
TTITLE1=Days Of Wine And Roses, The
TTITLE2=Blues In Closet
TTITLE3=Just Friends
TTITLE4=Soul Eyes
TTITLE5=Beautiful Love
TTITLE6=Road Song
TTITLE7=Anthropology
TTITLE8=Maiden Voyage
EXTD=
EXTT0=
EXTT1=
EXTT2=
EXTT3=
EXTT4=
EXTT5=
EXTT6=
EXTT7=
EXTT8=
PLAYORDER=
